<svg width="411" height="74" viewBox="0 0 411 74" fill="none" xmlns="http://www.w3.org/2000/svg">
<path d="M0.106812 0.336069H45.0089V12.4449H13.7035V30.526H44.5703V42.2513H13.7035V60.5515H45.0089V72.6604H0.106812V0.336069Z" fill="white"/>
<path d="M56.166 0.336069H76.1225C83.8346 0.336069 90.1944 1.88848 95.2018 4.99331C100.246 8.06162 104.01 12.3171 106.496 17.7596C108.981 23.2022 110.224 29.4302 110.224 36.4434C110.224 43.4932 108.981 49.7394 106.496 55.182C104.01 60.6246 100.246 64.8983 95.2018 68.0031C90.1944 71.1079 83.8346 72.6604 76.1225 72.6604H56.166V0.336069ZM69.7626 12.5545V60.4419H74.9162C79.6312 60.4419 83.5056 59.4192 86.5392 57.3736C89.6095 55.2916 91.8939 52.4424 93.3925 48.8262C94.9276 45.21 95.6952 41.1189 95.6952 36.553C95.7317 31.9505 95.0007 27.8412 93.5021 24.225C92.0036 20.6088 89.7009 17.7596 86.5941 15.6776C83.5238 13.5955 79.6312 12.5545 74.9162 12.5545H69.7626Z" fill="white"/>
<path d="M161.636 0.336069H175.342V44.936C175.342 50.89 174.154 56.0404 171.778 60.3871C169.439 64.7339 166.131 68.0944 161.855 70.4687C157.615 72.8065 152.608 73.9753 146.833 73.9753C141.021 73.9753 135.959 72.8065 131.646 70.4687C127.37 68.0944 124.044 64.7339 121.668 60.3871C119.329 56.0404 118.159 50.89 118.159 44.936V0.336069H131.811V44.2238C131.811 47.8765 132.432 50.9996 133.675 53.593C134.954 56.15 136.727 58.1042 138.993 59.4557C141.259 60.7707 143.872 61.4282 146.833 61.4282C149.757 61.4282 152.334 60.7707 154.563 59.4557C156.793 58.1042 158.529 56.15 159.772 53.593C161.014 50.9996 161.636 47.8765 161.636 44.2238V0.336069Z" fill="white"/>
<path d="M185.744 0.336069H225.986V12.4449H199.45V30.3616H224.067V42.4156H199.45V72.6604H185.744V0.336069Z" fill="white"/>
<path d="M235.164 0.336069H248.87V60.5515H276.009V72.6604H235.164V0.336069Z" fill="white"/>
<path d="M285.114 0.336069H330.016V12.4449H298.711V30.526H329.577V42.2513H298.711V60.5515H330.016V72.6604H285.114V0.336069Z" fill="white"/>
<path d="M380.099 33.7587L406.964 72.6604H389.146L370.144 45.4401L362.226 33.7587L338.925 0.336069H357.257L371.985 22.4279L380.099 33.7587Z" fill="white"/>
<path d="M373.395 22.2598C373.293 22.0552 375.895 19.2938 379.109 16.1232L395.245 0H404.594L410.893 0.21916C410.893 0.423714 398.022 13.5298 389.146 22.4278H383.126C379.86 22.4278 373.446 22.4644 373.395 22.2598Z" fill="white"/>
<path d="M340.201 65.9466C336.987 69.1172 334.385 71.8787 334.487 72.0832C334.538 72.2878 340.952 72.2513 344.217 72.2513H350.237C359.114 63.3532 371.985 50.2471 371.985 50.0426L365.685 49.8234H356.337L340.201 65.9466Z" fill="#1CFEB8" fill-opacity="0.92"/>
</svg>
