<svg width="179" height="55" viewBox="0 0 179 55" fill="none" xmlns="http://www.w3.org/2000/svg">
<path d="M0 0.146442H19.5661V5.42286H5.92475V13.3017H19.3749V18.411H5.92475V26.3853H19.5661V31.6617H0V0.146442Z" fill="white"/>
<path d="M24.4277 0.146442H33.1238C36.4843 0.146442 39.2556 0.822906 41.4376 2.17583C43.6355 3.51285 45.2759 5.36715 46.3589 7.73875C47.4419 10.1104 47.9835 12.8242 47.9835 15.8802C47.9835 18.9521 47.4419 21.6739 46.3589 24.0455C45.2759 26.4171 43.6355 28.2794 41.4376 29.6323C39.2556 30.9852 36.4843 31.6617 33.1238 31.6617H24.4277V0.146442ZM30.3525 5.47061V26.3375H32.5982C34.6527 26.3375 36.341 25.8919 37.6629 25.0005C39.0007 24.0933 39.9962 22.8518 40.6492 21.276C41.3181 19.7002 41.6526 17.9175 41.6526 15.9279C41.6685 13.9224 41.35 12.1318 40.697 10.556C40.044 8.98027 39.0406 7.73876 37.6868 6.8315C36.3489 5.92424 34.6527 5.47061 32.5982 5.47061H30.3525Z" fill="white"/>
<path d="M70.3862 0.146442H76.3587V19.5809C76.3587 22.1753 75.8411 24.4196 74.8058 26.3137C73.7865 28.2078 72.3451 29.6721 70.4817 30.7067C68.6342 31.7254 66.4522 32.2347 63.9358 32.2347C61.4034 32.2347 59.1975 31.7254 57.3182 30.7067C55.4547 29.6721 54.0054 28.2078 52.9702 26.3137C51.9509 24.4196 51.4412 22.1753 51.4412 19.5809V0.146442H57.3899V19.2705C57.3899 20.8622 57.6606 22.223 58.2022 23.3531C58.7596 24.4673 59.532 25.3189 60.5195 25.9078C61.5069 26.4808 62.6457 26.7673 63.9358 26.7673C65.2099 26.7673 66.3328 26.4808 67.3043 25.9078C68.2758 25.3189 69.0324 24.4673 69.5739 23.3531C70.1154 22.223 70.3862 20.8622 70.3862 19.2705V0.146442Z" fill="white"/>
<path d="M80.8911 0.146442H98.4265V5.42286H86.8637V13.2301H97.5903V18.4826H86.8637V31.6617H80.8911V0.146442Z" fill="white"/>
<path d="M102.426 0.146442H108.398V26.3853H120.224V31.6617H102.426V0.146442Z" fill="white"/>
<path d="M124.192 0.146442H143.758V5.42286H130.116V13.3017H143.567V18.411H130.116V26.3853H143.758V31.6617H124.192V0.146442Z" fill="white"/>
<path d="M165.582 14.7103L177.288 31.6617H169.523L161.244 19.8005L157.793 14.7103L147.64 0.146442H155.628L162.046 9.77292L165.582 14.7103Z" fill="white"/>
<path d="M162.66 9.6997C162.616 9.61056 163.749 8.40725 165.15 7.02567L172.181 0H176.255L179 0.0954989C179 0.184633 173.392 5.89558 169.523 9.77291H166.9C165.477 9.77291 162.682 9.78883 162.66 9.6997Z" fill="white"/>
<path d="M148.196 28.7362C146.795 30.1178 145.661 31.3211 145.706 31.4102C145.728 31.4994 148.523 31.4834 149.946 31.4834H152.569C156.437 27.6061 162.046 21.8952 162.046 21.806L159.301 21.7105H155.227L148.196 28.7362Z" fill="#1CFEB8" fill-opacity="0.92"/>
<path fill-rule="evenodd" clip-rule="evenodd" d="M26.9296 38.4546L32.0426 43.5798L37.1778 38.4546H42.2686L47.6038 43.8026L45.0474 46.3652L47.6038 48.9279L42.2686 54.2759H37.3779L29.5972 46.4767C25.3068 42.1759 21.7721 38.6106 21.7054 38.5437C21.6388 38.4992 22.7947 38.4546 26.9296 38.4546ZM37.3779 43.8026H32.2649L39.8232 51.379L42.2686 48.9279L39.7121 46.3652L42.2686 43.8026L39.8232 41.3514L37.3779 43.8026ZM56.6072 38.4546V51.379L64.0543 51.4905V54.1645H52.7168L52.6724 46.5881C52.6724 42.4211 52.6946 38.878 52.7391 38.722C52.7835 38.5214 53.3838 38.4546 56.6072 38.4546ZM77.0591 38.4546H80.8383V44.2483L81.4385 43.5575C81.772 43.1787 82.5056 42.7107 83.0613 42.5102C83.7282 42.2874 84.4396 42.1982 85.1732 42.2874C85.7734 42.3542 86.7071 42.6216 87.2184 42.8667C87.7519 43.1341 88.4411 43.7135 88.7745 44.1815C89.108 44.6271 89.5081 45.3625 89.6637 45.7859C89.7971 46.2315 89.9305 47.3234 89.9305 48.2593C89.9527 49.173 89.7971 50.3763 89.6193 50.9334C89.4414 51.5127 88.9079 52.3372 88.3521 52.8943C87.6852 53.5405 87.0406 53.9639 86.2847 54.1645C85.6623 54.3427 84.9287 54.4987 84.6174 54.4987C84.3062 54.4764 83.6838 54.3873 83.2169 54.2536C82.7723 54.1422 82.0387 53.7188 80.8605 52.6046L80.8383 54.2759H77.0591V38.4546ZM81.2162 46.4767C81.0161 46.9 80.8383 47.7245 80.8383 48.3039C80.8383 48.8833 81.0161 49.7301 81.2162 50.1757C81.4385 50.6214 81.8164 51.1339 82.061 51.2899C82.3055 51.4682 82.9279 51.6019 83.4392 51.6019C83.9728 51.6019 84.5952 51.4905 84.8397 51.379C85.0843 51.2453 85.4844 50.7105 85.729 50.198C85.9513 49.6855 86.1513 48.8164 86.1736 48.3039C86.1736 47.7914 86.018 47.0115 85.8401 46.5881C85.6623 46.1424 85.2844 45.6522 84.9954 45.4739C84.7286 45.2956 84.1951 45.0951 83.8394 45.0059C83.417 44.9391 82.8835 45.0282 82.3944 45.2956C81.9498 45.5185 81.4385 46.031 81.2162 46.4767ZM70.7235 42.2428C71.4571 42.2428 72.5686 42.3765 73.2133 42.5548C73.8579 42.7553 74.7027 43.1787 75.0806 43.513C75.4585 43.8472 75.9254 44.4043 76.081 44.7385C76.3033 45.2065 76.3922 46.4989 76.3922 54.2759H72.8353V52.7161L72.2129 53.3177C71.8572 53.652 71.1903 54.0531 70.7012 54.209C70.2122 54.365 69.4341 54.4764 68.945 54.4764C68.456 54.4764 67.6779 54.3873 67.2111 54.2536C66.7664 54.1422 66.0106 53.6965 65.5438 53.2731C64.7435 52.5378 64.7212 52.4932 64.7212 50.9111C64.7212 49.329 64.7212 49.3067 65.6105 48.549C66.0995 48.1256 66.9221 47.7023 67.5 47.5686C68.0558 47.4571 69.2562 47.2566 70.1677 47.1452C71.0791 47.0338 72.0128 46.8778 72.2129 46.8109C72.4352 46.7441 72.613 46.4544 72.613 46.187C72.613 45.9196 72.4352 45.5185 72.2351 45.2956C72.0128 45.0951 71.5237 44.8722 71.1681 44.7831C70.7457 44.694 70.1677 44.7831 69.6564 45.0059C69.2118 45.1842 68.7894 45.4962 68.7227 45.6967C68.6338 45.9419 68.2337 46.031 67.0999 46.0087C66.2774 46.0087 65.4549 45.9196 65.277 45.8082C64.988 45.6076 65.0102 45.4739 65.4104 44.7385C65.6772 44.2706 66.1218 43.7135 66.4108 43.513C66.6998 43.2901 67.5 42.9113 68.167 42.6662C68.8339 42.4433 69.9899 42.2428 70.7235 42.2428ZM68.5449 49.9752C68.3226 50.198 68.1447 50.5991 68.1447 50.8665C68.167 51.1339 68.3893 51.5127 68.656 51.7133C68.945 51.8916 69.5452 52.0475 69.9898 52.0475C70.4567 52.0475 71.1236 51.8916 71.5015 51.7133C71.8572 51.5127 72.2574 51.1785 72.3907 50.9334C72.5019 50.6882 72.613 50.1312 72.613 49.7078C72.613 49.2621 72.5241 48.9278 72.4352 48.9501C72.3463 48.9501 71.5237 49.1061 70.6123 49.2844C69.7009 49.4404 68.7672 49.7746 68.5449 49.9752Z" fill="white"/>
<path d="M21.6609 54.12C21.6165 54.0309 22.7502 52.8276 24.1507 51.446L26.7072 48.9279H29.3082C30.7532 48.9279 31.9314 48.9948 31.9314 49.1062C31.9314 49.1953 30.7976 50.3987 26.9295 54.276H24.3063C22.8836 54.276 21.6832 54.2091 21.6609 54.12Z" fill="#1CFEB8" fill-opacity="0.92"/>
<path d="M0 50.7232V38.2349H0.780524V44.8875C0.810776 44.6817 0.95599 44.4367 1.21616 44.1523C1.47634 43.8619 1.8303 43.6078 2.27804 43.3899C2.73183 43.1661 3.25823 43.0541 3.85724 43.0541C4.5228 43.0541 5.12786 43.2084 5.67241 43.517C6.21696 43.8256 6.64958 44.2764 6.97026 44.8693C7.29699 45.4562 7.46035 46.1672 7.46035 47.0021C7.46035 47.8371 7.29699 48.5511 6.97026 49.144C6.64958 49.7309 6.21696 50.1787 5.67241 50.4873C5.12786 50.7898 4.5228 50.9411 3.85724 50.9411C3.25823 50.9411 2.73183 50.8291 2.27804 50.6053C1.82425 50.3753 1.46424 50.1152 1.19801 49.8247C0.931788 49.5343 0.783549 49.2953 0.753296 49.1077V50.7232H0ZM6.68891 47.0021C6.68891 46.3305 6.55277 45.7527 6.28049 45.2687C6.01427 44.7846 5.66333 44.4155 5.22769 44.1614C4.7981 43.9012 4.33221 43.7711 3.83001 43.7711C3.27941 43.7711 2.77116 43.9042 2.30527 44.1705C1.84542 44.4306 1.47634 44.8028 1.19801 45.2868C0.919687 45.7708 0.780524 46.3426 0.780524 47.0021C0.780524 47.6617 0.919687 48.2334 1.19801 48.7175C1.47634 49.2015 1.84542 49.5736 2.30527 49.8338C2.77116 50.094 3.27941 50.2241 3.83001 50.2241C4.33221 50.2241 4.7981 50.097 5.22769 49.8429C5.66333 49.5888 6.01427 49.2197 6.28049 48.7356C6.55277 48.2516 6.68891 47.6738 6.68891 47.0021Z" fill="white"/>
<path d="M11.372 49.9427L14.2309 43.272H15.0387L10.0742 54.4988H9.26645L10.9455 50.7232L7.89599 43.272H8.7219L11.372 49.9427Z" fill="white"/>
</svg>
