<svg width="100" height="31" viewBox="0 0 100 31" fill="none" xmlns="http://www.w3.org/2000/svg">
<path fill-rule="evenodd" clip-rule="evenodd" d="M15.0051 21.5371L17.854 24.3928L20.7154 21.5371H23.552L26.5248 24.517L25.1003 25.9449L26.5248 27.3728L23.552 30.3527H20.8269L16.4915 26.007C14.1009 23.6106 12.1314 21.624 12.0942 21.5867C12.057 21.5619 12.7012 21.5371 15.0051 21.5371ZM20.8269 24.517H17.9779L22.1894 28.7386L23.552 27.3728L22.1275 25.9449L23.552 24.517L22.1894 23.1512L20.8269 24.517ZM31.5414 21.5371V28.7386L35.691 28.8006V30.2906H29.3737L29.349 26.069C29.349 23.7472 29.3613 21.773 29.3861 21.6861C29.4109 21.5743 29.7453 21.5371 31.5414 21.5371ZM42.9372 21.5371H45.043V24.7653L45.3774 24.3804C45.5632 24.1693 45.972 23.9086 46.2817 23.7968C46.6533 23.6727 47.0496 23.623 47.4584 23.6727C47.7928 23.7099 48.3131 23.8589 48.598 23.9955C48.8953 24.1445 49.2792 24.4673 49.465 24.7281C49.6509 24.9764 49.8738 25.3861 49.9605 25.622C50.0348 25.8704 50.1092 26.4788 50.1092 27.0003C50.1215 27.5093 50.0348 28.1798 49.9357 28.4902C49.8367 28.8131 49.5394 29.2725 49.2297 29.5829C48.8581 29.9429 48.4989 30.1789 48.0777 30.2906C47.7309 30.3899 47.3221 30.4768 47.1487 30.4768C46.9753 30.4644 46.6285 30.4148 46.3684 30.3403C46.1206 30.2782 45.7119 30.0423 45.0554 29.4215L45.043 30.3527H42.9372V21.5371ZM45.2536 26.007C45.1421 26.2429 45.043 26.7023 45.043 27.0251C45.043 27.3479 45.1421 27.8197 45.2536 28.0681C45.3774 28.3164 45.588 28.602 45.7243 28.6889C45.8605 28.7882 46.2073 28.8627 46.4922 28.8627C46.7895 28.8627 47.1363 28.8006 47.2726 28.7386C47.4088 28.6641 47.6318 28.3661 47.7681 28.0805C47.8919 27.7949 48.0034 27.3107 48.0158 27.0251C48.0158 26.7395 47.9291 26.3049 47.83 26.069C47.7309 25.8207 47.5203 25.5476 47.3593 25.4482C47.2107 25.3489 46.9134 25.2371 46.7152 25.1875C46.4798 25.1502 46.1826 25.1999 45.91 25.3489C45.6623 25.4731 45.3774 25.7586 45.2536 26.007ZM39.407 23.6478C39.8158 23.6478 40.4351 23.7223 40.7943 23.8217C41.1535 23.9334 41.6242 24.1693 41.8348 24.3556C42.0454 24.5418 42.3055 24.8522 42.3922 25.0385C42.5161 25.2992 42.5656 26.0194 42.5656 30.3527H40.5837V29.4835L40.2369 29.8188C40.0387 30.005 39.6671 30.2285 39.3946 30.3154C39.1221 30.4023 38.6886 30.4644 38.4161 30.4644C38.1436 30.4644 37.71 30.4148 37.4499 30.3403C37.2022 30.2782 36.781 30.0299 36.5209 29.7939C36.075 29.3842 36.0626 29.3594 36.0626 28.4778C36.0626 27.5963 36.0626 27.5838 36.5581 27.1617C36.8306 26.9258 37.2889 26.6899 37.6109 26.6154C37.9206 26.5533 38.5895 26.4415 39.0973 26.3794C39.6052 26.3174 40.1254 26.2305 40.2369 26.1932C40.3608 26.156 40.4599 25.9945 40.4599 25.8455C40.4599 25.6965 40.3608 25.4731 40.2493 25.3489C40.1254 25.2371 39.8529 25.113 39.6547 25.0633C39.4194 25.0136 39.0973 25.0633 38.8124 25.1875C38.5647 25.2868 38.3294 25.4606 38.2922 25.5724C38.2426 25.709 38.0197 25.7586 37.388 25.7462C36.9296 25.7462 36.4713 25.6965 36.3722 25.6345C36.2112 25.5227 36.2236 25.4482 36.4466 25.0385C36.5952 24.7777 36.8429 24.4673 37.004 24.3556C37.165 24.2314 37.6109 24.0203 37.9825 23.8838C38.3541 23.7596 38.9982 23.6478 39.407 23.6478ZM38.1931 27.9563C38.0692 28.0805 37.9701 28.304 37.9701 28.453C37.9825 28.602 38.1064 28.8131 38.255 28.9248C38.4161 29.0241 38.7505 29.111 38.9982 29.111C39.2584 29.111 39.63 29.0241 39.8405 28.9248C40.0387 28.8131 40.2617 28.6268 40.336 28.4902C40.3979 28.3536 40.4599 28.0432 40.4599 27.8073C40.4599 27.559 40.4103 27.3728 40.3608 27.3852C40.3112 27.3852 39.8529 27.4721 39.3451 27.5714C38.8372 27.6583 38.317 27.8446 38.1931 27.9563Z" fill="#0A57A8"/>
<path d="M12.0694 30.2658C12.0446 30.2161 12.6764 29.5456 13.4567 28.7758L14.8812 27.3728H16.3304C17.1356 27.3728 17.7921 27.41 17.7921 27.4721C17.7921 27.5218 17.1604 28.1922 15.0051 30.3527H13.5434C12.7507 30.3527 12.0818 30.3154 12.0694 30.2658Z" fill="#1CFEB8" fill-opacity="0.92"/>
<path d="M0 0.0815972H10.9022V3.02161H3.30128V7.41168H10.7957V10.2586H3.30128V14.7019H10.9022V17.6419H0V0.0815972Z" fill="black"/>
<path d="M13.6111 0.0815972H18.4565C20.329 0.0815972 21.8732 0.458522 23.089 1.21237C24.3136 1.95735 25.2277 2.99057 25.8312 4.31203C26.4346 5.63348 26.7363 7.14562 26.7363 8.84843C26.7363 10.5601 26.4346 12.0767 25.8312 13.3981C25.2277 14.7196 24.3136 15.7572 23.089 16.5111C21.8732 17.2649 20.329 17.6419 18.4565 17.6419H13.6111V0.0815972ZM16.9124 3.04822V14.6753H18.1637C19.3085 14.6753 20.2492 14.4269 20.9857 13.9303C21.7312 13.4247 22.2858 12.733 22.6497 11.855C23.0224 10.9769 23.2088 9.98364 23.2088 8.87504C23.2176 7.75757 23.0402 6.75982 22.6763 5.88181C22.3125 5.0038 21.7534 4.31203 20.999 3.8065C20.2536 3.30098 19.3085 3.04822 18.1637 3.04822H16.9124Z" fill="black"/>
<path d="M39.2191 0.0815972H42.547V10.9104C42.547 12.3561 42.2586 13.6066 41.6817 14.6619C41.1138 15.7173 40.3106 16.5333 39.2723 17.1097C38.2429 17.6773 37.0271 17.9612 35.625 17.9612C34.2139 17.9612 32.9848 17.6773 31.9376 17.1097C30.8993 16.5333 30.0918 15.7173 29.5149 14.6619C28.947 13.6066 28.663 12.3561 28.663 10.9104V0.0815972H31.9776V10.7375C31.9776 11.6244 32.1284 12.3827 32.4302 13.0123C32.7408 13.6332 33.1712 14.1076 33.7214 14.4358C34.2716 14.7551 34.9061 14.9147 35.625 14.9147C36.3349 14.9147 36.9606 14.7551 37.5019 14.4358C38.0432 14.1076 38.4648 13.6332 38.7665 13.0123C39.0682 12.3827 39.2191 11.6244 39.2191 10.7375V0.0815972Z" fill="black"/>
<path d="M45.0724 0.0815972H54.8432V3.02161H48.4004V7.37177H54.3773V10.2985H48.4004V17.6419H45.0724V0.0815972Z" fill="black"/>
<path d="M57.0716 0.0815972H60.3995V14.7019H66.9888V17.6419H57.0716V0.0815972Z" fill="black"/>
<path d="M69.1995 0.0815972H80.1017V3.02161H72.5008V7.41168H79.9952V10.2586H72.5008V14.7019H80.1017V17.6419H69.1995V0.0815972Z" fill="black"/>
<path d="M92.2619 8.19657L98.7845 17.6419H94.4583L89.8448 11.0328L87.9223 8.19657L82.2649 0.0815972H86.7159L90.2918 5.44546L92.2619 8.19657Z" fill="black"/>
<path d="M90.6341 5.40466C90.6093 5.355 91.2411 4.68451 92.0214 3.9147L95.9392 0H98.2091L99.7386 0.0532119C99.7386 0.102877 96.6136 3.28501 94.4583 5.44546H92.9967C92.2039 5.44546 90.6465 5.45433 90.6341 5.40466Z" fill="black"/>
<path d="M82.5745 16.0118C81.7942 16.7816 81.1624 17.4521 81.1872 17.5017C81.1996 17.5514 82.757 17.5425 83.5498 17.5425H85.0114C87.1667 15.3821 90.2918 12.2 90.2918 12.1503L88.7622 12.0971H86.4924L82.5745 16.0118Z" fill="#1CFEB8" fill-opacity="0.92"/>
<path d="M0 28.4015V21.5371H0.440784V25.1938C0.457869 25.0807 0.539876 24.946 0.686804 24.7897C0.833732 24.6301 1.03362 24.4904 1.28648 24.3707C1.54275 24.2476 1.84002 24.1861 2.1783 24.1861C2.55416 24.1861 2.89585 24.2709 3.20338 24.4405C3.5109 24.6101 3.75521 24.8579 3.93631 25.1838C4.12082 25.5064 4.21308 25.8972 4.21308 26.3562C4.21308 26.8151 4.12082 27.2076 3.93631 27.5335C3.75521 27.8561 3.5109 28.1022 3.20338 28.2718C2.89585 28.4381 2.55416 28.5213 2.1783 28.5213C1.84002 28.5213 1.54275 28.4597 1.28648 28.3367C1.03021 28.2103 0.826898 28.0673 0.676553 27.9077C0.526208 27.748 0.442493 27.6166 0.425408 27.5135V28.4015H0ZM3.77742 26.3562C3.77742 25.987 3.70054 25.6694 3.54678 25.4033C3.39643 25.1373 3.19825 24.9344 2.95223 24.7947C2.70963 24.6517 2.44652 24.5802 2.16292 24.5802C1.85198 24.5802 1.56496 24.6534 1.30185 24.7997C1.04216 24.9427 0.833732 25.1472 0.676553 25.4133C0.519374 25.6794 0.440784 25.9937 0.440784 26.3562C0.440784 26.7187 0.519374 27.033 0.676553 27.299C0.833732 27.5651 1.04216 27.7696 1.30185 27.9126C1.56496 28.0557 1.85198 28.1272 2.16292 28.1272C2.44652 28.1272 2.70963 28.0573 2.95223 27.9176C3.19825 27.778 3.39643 27.5751 3.54678 27.309C3.70054 27.0429 3.77742 26.7253 3.77742 26.3562Z" fill="black"/>
<path d="M6.42213 27.9725L8.03663 24.3058H8.49279L5.68919 30.4768H5.23303L6.18123 28.4015L4.4591 24.3058H4.92551L6.42213 27.9725Z" fill="black"/>
</svg>
