<svg width="145" height="27" viewBox="0 0 145 27" fill="none" xmlns="http://www.w3.org/2000/svg">
<path d="M0 0.297552H15.7805V4.5531H4.77846V10.9075H15.6263V15.0283H4.77846V21.4598H15.7805V25.7153H0V0.297552Z" fill="#0A57A8"/>
<path d="M19.7015 0.297552H26.7151C29.4254 0.297552 31.6605 0.843136 33.4203 1.9343C35.193 3.01263 36.516 4.50817 37.3895 6.42092C38.263 8.33368 38.6998 10.5224 38.6998 12.9872C38.6998 15.4648 38.263 17.6599 37.3895 19.5727C36.516 21.4855 35.193 22.9874 33.4203 24.0786C31.6605 25.1697 29.4254 25.7153 26.7151 25.7153H19.7015V0.297552ZM24.48 4.59162V21.4213H26.2912C27.9482 21.4213 29.3098 21.0618 30.376 20.3429C31.455 19.6112 32.2578 18.6099 32.7845 17.339C33.324 16.0681 33.5937 14.6304 33.5937 13.0257C33.6066 11.4082 33.3497 9.96401 32.823 8.69312C32.2964 7.42223 31.4871 6.42093 30.3953 5.6892C29.3162 4.95748 27.9482 4.59162 26.2912 4.59162H24.48Z" fill="#0A57A8"/>
<path d="M56.768 0.297552H61.585V15.9718C61.585 18.0643 61.1675 19.8744 60.3326 21.402C59.5105 22.9296 58.348 24.1107 56.8451 24.9451C55.355 25.7667 53.5952 26.1775 51.5657 26.1775C49.5232 26.1775 47.7442 25.7667 46.2284 24.9451C44.7255 24.1107 43.5566 22.9296 42.7216 21.402C41.8995 19.8744 41.4885 18.0643 41.4885 15.9718V0.297552H46.2862V15.7215C46.2862 17.0052 46.5046 18.1028 46.9413 19.0143C47.3909 19.9129 48.0139 20.5997 48.8103 21.0747C49.6067 21.5368 50.5252 21.7679 51.5657 21.7679C52.5933 21.7679 53.4989 21.5368 54.2824 21.0747C55.066 20.5997 55.6762 19.9129 56.1129 19.0143C56.5496 18.1028 56.768 17.0052 56.768 15.7215V0.297552Z" fill="#0A57A8"/>
<path d="M65.2405 0.297552H79.3832V4.5531H70.0575V10.8498H78.7088V15.0861H70.0575V25.7153H65.2405V0.297552Z" fill="#0A57A8"/>
<path d="M82.6088 0.297552H87.4258V21.4598H96.9634V25.7153H82.6088V0.297552Z" fill="#0A57A8"/>
<path d="M100.163 0.297552H115.944V4.5531H104.942V10.9075H115.79V15.0283H104.942V21.4598H115.944V25.7153H100.163V0.297552Z" fill="#0A57A8"/>
<path d="M133.545 12.0436L142.987 25.7153H136.724L130.047 16.149L127.264 12.0436L119.075 0.297552H125.518L130.694 8.06153L133.545 12.0436Z" fill="#0A57A8"/>
<path d="M131.189 8.00247C131.153 7.93058 132.068 6.96008 133.197 5.84581L138.868 0.179443H142.154L144.368 0.256465C144.368 0.328354 139.844 4.93436 136.724 8.06152H134.609C133.461 8.06152 131.207 8.07436 131.189 8.00247Z" fill="#0A57A8"/>
<path d="M119.523 23.3558C118.394 24.4701 117.479 25.4406 117.515 25.5125C117.533 25.5844 119.787 25.5716 120.935 25.5716H123.05C126.17 22.4444 130.694 17.8384 130.694 17.7665L128.48 17.6895H125.194L119.523 23.3558Z" fill="#1CFEB8" fill-opacity="0.92"/>
</svg>
